<svg width="64" height="64" viewBox="0 0 80 80" fill="none" xmlns="http://www.w3.org/2000/svg">
  <defs>
    <linearGradient id="faviconGradient" x1="8" y1="8" x2="72" y2="72" gradientUnits="userSpaceOnUse">
      <stop stop-color="#1E56A8"/>
      <stop offset="1" stop-color="#0D2550"/>
    </linearGradient>
  </defs>
  <rect width="80" height="80" rx="22" fill="#EEF4FB"/>
  <path d="M18 19h35c2.9 0 4.3 3.5 2.2 5.5L31.5 48h26c3 0 4.3 3.7 1.9 5.7L49 63H17.5c-2.8 0-4.2-3.4-2.2-5.4L39 34H18.3c-3 0-4.4-3.7-2-5.8L28 19Z" fill="url(#faviconGradient)"/>
  <circle cx="53.5" cy="16.5" r="5.3" fill="url(#faviconGradient)"/>
  <path d="M49.5 23.5c3.2 2.4 5 6 5 10.4V44" stroke="url(#faviconGradient)" stroke-width="5" stroke-linecap="round"/>
  <path d="M42.5 20.5c2 5.1 5.9 9.1 11.1 11.3" stroke="url(#faviconGradient)" stroke-width="4.6" stroke-linecap="round"/>
</svg>
